<svg width="50" height="50" viewBox="0 0 50 50" fill="none" xmlns="http://www.w3.org/2000/svg">
<circle cx="25" cy="25" r="23.7487" stroke="url(#paint0_linear_787_4977)" stroke-width="2"/>
<path d="M23.28 26.664C23.664 26.328 24.088 25.96 24.552 25.56C25.032 25.16 25.48 24.744 25.896 24.312C26.328 23.864 26.68 23.384 26.952 22.872C27.24 22.36 27.384 21.808 27.384 21.216C27.384 20.352 27.128 19.656 26.616 19.128C26.104 18.6 25.368 18.336 24.408 18.336C23.64 18.336 22.992 18.512 22.464 18.864C21.936 19.216 21.608 19.688 21.48 20.28H18.744C18.808 19.544 19.008 18.888 19.344 18.312C19.696 17.736 20.136 17.264 20.664 16.896C21.192 16.528 21.768 16.264 22.392 16.104C23.032 15.928 23.76 15.84 24.576 15.84C25.344 15.84 26.064 15.944 26.736 16.152C27.408 16.36 27.992 16.672 28.488 17.088C29 17.504 29.4 18.032 29.688 18.672C29.992 19.296 30.144 20.032 30.144 20.88C30.144 21.552 30.056 22.168 29.88 22.728C29.704 23.288 29.464 23.808 29.16 24.288C28.856 24.768 28.504 25.216 28.104 25.632C27.72 26.048 27.312 26.44 26.88 26.808C26.304 27.304 25.792 27.736 25.344 28.104C24.912 28.456 24.52 28.776 24.168 29.064C23.816 29.352 23.496 29.616 23.208 29.856C22.92 30.08 22.648 30.304 22.392 30.528H30.144V33H18.6V30.72L23.28 26.664Z" fill="white"/>
<defs>
<linearGradient id="paint0_linear_787_4977" x1="-7.00838" y1="31.1871" x2="51.4661" y2="36.6483" gradientUnits="userSpaceOnUse">
<stop offset="0.015" stop-color="#05465D"/>
<stop offset="0.52" stop-color="#2B91A7"/>
<stop offset="1" stop-color="#227284"/>
</linearGradient>
</defs>
</svg>
