<svg width="50" height="50" viewBox="0 0 50 50" fill="none" xmlns="http://www.w3.org/2000/svg">
<circle cx="25" cy="25" r="23.7487" stroke="url(#paint0_linear_787_4970)" stroke-width="2"/>
<path d="M25.056 33.168C24.272 33.168 23.52 33.088 22.8 32.928C22.08 32.752 21.432 32.488 20.856 32.136C20.296 31.768 19.816 31.296 19.416 30.72C19.032 30.144 18.784 29.448 18.672 28.632H21.48C21.608 29.048 21.8 29.384 22.056 29.64C22.312 29.896 22.6 30.104 22.92 30.264C23.256 30.424 23.608 30.536 23.976 30.6C24.344 30.648 24.704 30.672 25.056 30.672C25.424 30.672 25.808 30.64 26.208 30.576C26.608 30.496 26.968 30.36 27.288 30.168C27.624 29.976 27.896 29.712 28.104 29.376C28.328 29.024 28.44 28.568 28.44 28.008C28.44 27.496 28.336 27.08 28.128 26.76C27.936 26.44 27.672 26.192 27.336 26.016C27.016 25.84 26.648 25.72 26.232 25.656C25.832 25.592 25.424 25.56 25.008 25.56H23.328V23.208H24.312C24.696 23.208 25.096 23.168 25.512 23.088C25.928 23.008 26.304 22.872 26.64 22.68C26.992 22.488 27.272 22.232 27.48 21.912C27.704 21.592 27.816 21.192 27.816 20.712C27.816 20.248 27.736 19.864 27.576 19.56C27.416 19.24 27.2 18.992 26.928 18.816C26.656 18.624 26.344 18.496 25.992 18.432C25.656 18.352 25.296 18.312 24.912 18.312C24.256 18.312 23.64 18.464 23.064 18.768C22.488 19.056 22.112 19.568 21.936 20.304H19.2C19.296 19.52 19.512 18.848 19.848 18.288C20.184 17.712 20.616 17.248 21.144 16.896C21.672 16.528 22.264 16.256 22.92 16.08C23.592 15.904 24.296 15.816 25.032 15.816C25.752 15.816 26.44 15.896 27.096 16.056C27.768 16.216 28.36 16.472 28.872 16.824C29.384 17.176 29.792 17.64 30.096 18.216C30.4 18.776 30.552 19.464 30.552 20.28C30.552 20.952 30.384 21.616 30.048 22.272C29.728 22.928 29.128 23.48 28.248 23.928C29.256 24.2 30.008 24.696 30.504 25.416C31 26.12 31.248 26.976 31.248 27.984C31.248 28.912 31.072 29.704 30.72 30.36C30.384 31 29.936 31.536 29.376 31.968C28.832 32.384 28.184 32.688 27.432 32.88C26.68 33.072 25.888 33.168 25.056 33.168Z" fill="white"/>
<defs>
<linearGradient id="paint0_linear_787_4970" x1="-7.00837" y1="31.1871" x2="51.4661" y2="36.6483" gradientUnits="userSpaceOnUse">
<stop offset="0.015" stop-color="#05465D"/>
<stop offset="0.52" stop-color="#2B91A7"/>
<stop offset="1" stop-color="#227284"/>
</linearGradient>
</defs>
</svg>
