<svg width="40" height="40" viewBox="0 0 40 40" fill="none" xmlns="http://www.w3.org/2000/svg">
<path d="M20 40C31.0457 40 40 31.0457 40 20C40 8.9543 31.0457 0 20 0C8.9543 0 0 8.9543 0 20C0 31.0457 8.9543 40 20 40Z" fill="#2E2E2E" fill-opacity="0.7"/>
<path fill-rule="evenodd" clip-rule="evenodd" d="M20.6596 31.127H20.6546C18.6642 31.1263 16.7085 30.6269 14.9714 29.6795L8.66699 31.3333L10.3542 25.1706C9.31344 23.367 8.76581 21.3212 8.7667 19.2251C8.76931 12.668 14.1043 7.33325 20.6594 7.33325C23.8409 7.33463 26.8268 8.57314 29.0722 10.8211C31.3175 13.0689 32.5534 16.0569 32.5521 19.2345C32.5495 25.7901 27.2166 31.1243 20.6596 31.127ZM15.2635 27.5265L15.6245 27.7407C17.1421 28.6413 18.8818 29.1178 20.6556 29.1185H20.6596C26.1077 29.1185 30.5419 24.6842 30.5441 19.2338C30.5451 16.5926 29.518 14.1092 27.6517 12.2407C25.7855 10.3723 23.3036 9.34286 20.6634 9.34195C15.2111 9.34195 10.7768 13.7758 10.7746 19.2258C10.7739 21.0936 11.2965 22.9125 12.2859 24.4863L12.521 24.8603L11.5224 28.5079L15.2635 27.5265ZM26.244 21.795C26.4513 21.8951 26.5912 21.9628 26.651 22.0625C26.7252 22.1864 26.7252 22.7814 26.4777 23.4756C26.23 24.1697 25.0429 24.8032 24.4719 24.8885C23.96 24.9651 23.3121 24.997 22.6003 24.7708C22.1687 24.6338 21.6152 24.451 20.9063 24.1448C18.1205 22.9419 16.2378 20.2419 15.882 19.7316C15.8571 19.6959 15.8397 19.6709 15.83 19.6579L15.8276 19.6547C15.6703 19.4448 14.6166 18.0389 14.6166 16.5839C14.6166 15.2151 15.289 14.4977 15.5984 14.1674C15.6196 14.1448 15.6391 14.124 15.6566 14.1049C15.929 13.8074 16.2509 13.733 16.449 13.733C16.6471 13.733 16.8454 13.7349 17.0186 13.7436C17.0399 13.7446 17.0621 13.7445 17.0851 13.7444C17.2583 13.7434 17.4742 13.7421 17.6871 14.2537C17.7691 14.4506 17.889 14.7424 18.0154 15.0503C18.2711 15.6728 18.5536 16.3606 18.6033 16.4601C18.6776 16.6088 18.7271 16.7823 18.6281 16.9807C18.6132 17.0105 18.5995 17.0385 18.5863 17.0654C18.5119 17.2172 18.4572 17.329 18.331 17.4764C18.2813 17.5344 18.23 17.5969 18.1787 17.6594C18.0764 17.7839 17.9742 17.9083 17.8852 17.997C17.7364 18.1452 17.5816 18.306 17.7549 18.6035C17.9283 18.901 18.5246 19.874 19.408 20.662C20.3576 21.509 21.183 21.867 21.6013 22.0485C21.683 22.0839 21.7492 22.1126 21.7977 22.1369C22.0948 22.2857 22.2681 22.2608 22.4415 22.0625C22.6148 21.8642 23.1843 21.1948 23.3824 20.8974C23.5804 20.6 23.7786 20.6495 24.0509 20.7486C24.3234 20.8479 25.7843 21.5667 26.0815 21.7154C26.1395 21.7445 26.1937 21.7707 26.244 21.795Z" fill="url(#paint0_linear_1073_669)"/>
<defs>
<linearGradient id="paint0_linear_1073_669" x1="5.16384" y1="22.3332" x2="33.3832" y2="24.9561" gradientUnits="userSpaceOnUse">
<stop offset="0.015" stop-color="#05465D"/>
<stop offset="0.52" stop-color="#2B91A7"/>
<stop offset="1" stop-color="#227284"/>
</linearGradient>
</defs>
</svg>
